<?xml version="1.0" encoding="UTF-8"?>
<svg class="main-svg" xmlns="http://www.w3.org/2000/svg" xmlns:xlink="http://www.w3.org/1999/xlink" width="930" height="420" style="background: rgb(255, 255, 255);"><defs id="defs-373b41"><g class="clips"><clipPath id="clip373b41xyplot" class="plotclip"><rect width="869" height="359"></rect></clipPath><clipPath class="axesclip" id="clip373b41x"><rect x="61" y="0" width="869" height="420"></rect></clipPath><clipPath class="axesclip" id="clip373b41y"><rect x="0" y="36" width="930" height="359"></rect></clipPath><clipPath class="axesclip" id="clip373b41xy"><rect x="61" y="36" width="869" height="359"></rect></clipPath></g><g class="gradients"></g><g class="patterns"></g></defs><g class="bglayer"></g><g class="cartesianlayer"><g class="subplot xy"><g class="layer-subplot"><g class="shapelayer"></g><g class="imagelayer"></g></g><g class="minor-gridlayer"><g class="x"></g><g class="y"></g></g><g class="gridlayer"><g class="x"></g><g class="y"><path class="ygrid crisp" transform="translate(0,392.88)" d="M61,0h869" style="stroke: rgb(230, 234, 241); stroke-opacity: 1; stroke-width: 1px;"></path><path class="ygrid crisp" transform="translate(0,346.96)" d="M61,0h869" style="stroke: rgb(230, 234, 241); stroke-opacity: 1; stroke-width: 1px;"></path><path class="ygrid crisp" transform="translate(0,301.05)" d="M61,0h869" style="stroke: rgb(230, 234, 241); stroke-opacity: 1; stroke-width: 1px;"></path><path class="ygrid crisp" transform="translate(0,255.13)" d="M61,0h869" style="stroke: rgb(230, 234, 241); stroke-opacity: 1; stroke-width: 1px;"></path><path class="ygrid crisp" transform="translate(0,209.21)" d="M61,0h869" style="stroke: rgb(230, 234, 241); stroke-opacity: 1; stroke-width: 1px;"></path><path class="ygrid crisp" transform="translate(0,163.3)" d="M61,0h869" style="stroke: rgb(230, 234, 241); stroke-opacity: 1; stroke-width: 1px;"></path><path class="ygrid crisp" transform="translate(0,117.38)" d="M61,0h869" style="stroke: rgb(230, 234, 241); stroke-opacity: 1; stroke-width: 1px;"></path><path class="ygrid crisp" transform="translate(0,71.46000000000001)" d="M61,0h869" style="stroke: rgb(230, 234, 241); stroke-opacity: 1; stroke-width: 1px;"></path></g></g><g class="zerolinelayer"></g><path class="xlines-below"></path><path class="ylines-below"></path><g class="overplot"><g class="xy" transform="translate(61,36)" clip-path="url(#clip373b41xyplot)"><g class="scatterlayer mlayer"><g class="trace scatter tracec81eeb" style="stroke-miterlimit: 2; opacity: 1;"><g class="lines"><path class="js-line" d="M0,121.48L6.46,149.93L12.3,235.61L18.76,197.82L25.01,145.06L31.47,196.67L37.73,253.7L44.19,261.08L50.65,230.76L63.37,46.94L69.62,57.07L76.08,17.95L82.54,106.08L88.59,180.8L95.05,139.1L101.3,177.9L107.77,199.29L114.02,270.49L120.48,286.87L126.94,237.7L133.2,119.28L139.66,27.67L145.91,58.57L152.37,108.23L158.83,136.22L164.67,210.09L171.13,180.4L177.39,150.02L183.85,249L190.1,317.07L196.56,318.28L203.02,304.65L209.28,167.87L215.74,46.72L221.99,86.84L228.45,79.36L234.92,141.91L240.75,196.16L247.21,190.97L253.47,206.38L259.93,207.98L266.18,310.91L272.64,299.8L279.11,303.72L285.36,143.45L291.82,77.23L298.07,56.16L304.54,83.35L311,171.46L316.83,228.15L323.3,213.93L329.55,201.56L336.01,238.15L342.26,281.94L348.73,320.31L355.19,314.3L361.44,175.34L367.9,98.77L374.16,81.44L387.08,160.7L393.12,290.8L399.59,309.25L405.84,279.88L412.3,298.9L418.55,326.71L425.02,341.05L431.48,299.91L437.73,149.32L444.19,76.87L450.45,81.8L456.91,85.35L463.37,117.21L469.21,189.04L475.67,220.29L481.92,284.26L488.38,274.25L494.64,307.9L501.1,305.4L507.56,326.41L513.81,239.76L520.27,47.84L526.53,74.84L532.99,124.26L539.45,180.25L545.29,191.98L551.75,158.04L558,212.44L564.46,235.22L570.72,323.33L577.18,320.21L583.64,310.01L596.36,90.15L602.61,97.68L609.07,102.49L615.53,170.69L621.37,247.88L627.83,237.92L634.08,246.06L640.55,283.63L646.8,325.92L653.26,295.82L659.72,303.77L665.98,201.74L672.44,60.38L678.69,83.19L685.15,76.79L691.61,202.69L697.66,241.55L704.12,235.63L710.37,198.16L716.84,238.35L723.09,314.58L729.55,336.91L736.01,305.97L742.27,187.85L748.73,58.97L754.98,132.95L761.44,122.76L767.91,206.01L773.74,246.71L780.2,209.58L786.46,264.57L792.92,291.31L799.17,332.71L805.63,321.31L812.09,301.96L818.35,178.74L824.81,65.12L831.06,53.85L837.53,114.15L843.99,162.61L849.82,242.12L856.28,237.18L862.54,264.05L869,263.9" style="vector-effect: non-scaling-stroke; fill: none; stroke: rgb(92, 107, 192); stroke-opacity: 1; stroke-width: 1.5px; opacity: 1;"></path></g></g><g class="trace scatter trace4c9e73" style="stroke-miterlimit: 2; opacity: 1;"><g class="lines"><path class="js-line" d="M31.47,174.43L37.73,185.75L44.19,195.17L50.65,199.12L56.91,193.32L63.37,180.02L69.62,169.77L76.08,161.14L82.54,157.49L95.05,148.03L101.3,150.77L107.77,150.98L114.02,152.38L120.48,154.53L126.94,155.11L139.66,151.68L145.91,151.81L152.37,159.33L158.83,161.84L171.13,167.73L177.39,165.4L190.1,173.43L196.56,176.05L203.02,181.62L209.28,185.67L215.74,187.26L221.99,189.62L228.45,187.21L234.92,187.68L240.75,186.52L247.21,187.4L253.47,192.1L259.93,188.68L266.18,188.17L272.64,186.63L279.11,186.55L285.36,184.52L291.82,187.06L298.07,184.5L304.54,184.83L311,187.3L316.83,189.96L323.3,191.88L329.55,191.47L336.01,193.99L342.26,191.57L348.73,193.28L355.19,194.16L361.44,196.82L374.16,200.72L380.62,204L387.08,203.1L393.12,208.33L405.84,222.8L412.3,227.86L418.55,231.59L425.02,233.32L431.48,232.12L437.73,229.95L444.19,228.13L450.45,228.16L463.37,221.42L469.21,212.94L475.67,205.53L481.92,205.89L494.64,202.27L501.1,199.3L507.56,201.51L513.81,209.05L520.27,206.63L526.53,206.05L532.99,209.29L539.45,214.54L545.29,214.79L551.75,209.6L558,203.61L564.46,200.36L577.18,202.88L583.64,201.51L589.89,198.18L596.36,201.71L602.61,203.61L609.07,201.8L615.53,201L621.37,205.66L627.83,212.32L634.08,215.12L640.55,219.15L646.8,219.37L653.26,217.34L659.72,216.81L665.98,216.98L672.44,214.5L678.69,213.29L685.15,211.15L691.61,213.82L697.66,213.29L704.12,213.1L710.37,209.11L716.84,205.33L723.09,204.39L729.55,207.81L736.01,207.99L742.27,206.84L748.73,206.72L761.44,214.7L767.91,214.97L773.74,215.4L780.2,213.23L786.46,218.77L792.92,223.18L799.17,224.69L805.63,223.39L818.35,222.3L824.81,222.81L831.06,216.22L837.53,215.5L843.99,211.88L849.82,211.5L856.28,213.8L862.54,213.76L869,211.47" style="vector-effect: non-scaling-stroke; fill: none; stroke: rgb(229, 57, 53); stroke-opacity: 1; stroke-width: 3px; opacity: 1;"></path></g></g></g></g></g><path class="xlines-above crisp" d="M0,0" style="fill: none;"></path><path class="ylines-above crisp" d="M0,0" style="fill: none;"></path><g class="xaxislayer-above"><g class="xtick"><text text-anchor="middle" x="0" y="416" style="font-family: &quot;Source Sans&quot;, sans-serif; font-size: 12px; fill: rgb(128, 132, 149); fill-opacity: 1; font-weight: 400; font-style: normal; font-variant: normal; white-space: pre;" transform="translate(137.08,0)">2016</text></g><g class="xtick"><text text-anchor="middle" x="0" y="416" style="font-family: &quot;Source Sans&quot;, sans-serif; font-size: 12px; fill: rgb(128, 132, 149); fill-opacity: 1; font-weight: 400; font-style: normal; font-variant: normal; white-space: pre;" transform="translate(289.45,0)">2018</text></g><g class="xtick"><text text-anchor="middle" x="0" y="416" style="font-family: &quot;Source Sans&quot;, sans-serif; font-size: 12px; fill: rgb(128, 132, 149); fill-opacity: 1; font-weight: 400; font-style: normal; font-variant: normal; white-space: pre;" transform="translate(441.62,0)">2020</text></g><g class="xtick"><text text-anchor="middle" x="0" y="416" style="font-family: &quot;Source Sans&quot;, sans-serif; font-size: 12px; fill: rgb(128, 132, 149); fill-opacity: 1; font-weight: 400; font-style: normal; font-variant: normal; white-space: pre;" transform="translate(593.99,0)">2022</text></g><g class="xtick"><text text-anchor="middle" x="0" y="416" style="font-family: &quot;Source Sans&quot;, sans-serif; font-size: 12px; fill: rgb(128, 132, 149); fill-opacity: 1; font-weight: 400; font-style: normal; font-variant: normal; white-space: pre;" transform="translate(746.15,0)">2024</text></g><g class="xtick"><text text-anchor="middle" x="0" y="416" style="font-family: &quot;Source Sans&quot;, sans-serif; font-size: 12px; fill: rgb(128, 132, 149); fill-opacity: 1; font-weight: 400; font-style: normal; font-variant: normal; white-space: pre;" transform="translate(898.53,0)">2026</text></g></g><g class="yaxislayer-above"><g class="ytick"><text text-anchor="end" x="52" y="4.2" style="font-family: &quot;Source Sans&quot;, sans-serif; font-size: 12px; fill: rgb(128, 132, 149); fill-opacity: 1; font-weight: 400; font-style: normal; font-variant: normal; white-space: pre;" transform="translate(0,392.88)">50</text></g><g class="ytick"><text text-anchor="end" x="52" y="4.2" style="font-family: &quot;Source Sans&quot;, sans-serif; font-size: 12px; fill: rgb(128, 132, 149); fill-opacity: 1; font-weight: 400; font-style: normal; font-variant: normal; white-space: pre;" transform="translate(0,346.96)">100</text></g><g class="ytick"><text text-anchor="end" x="52" y="4.2" style="font-family: &quot;Source Sans&quot;, sans-serif; font-size: 12px; fill: rgb(128, 132, 149); fill-opacity: 1; font-weight: 400; font-style: normal; font-variant: normal; white-space: pre;" transform="translate(0,301.05)">150</text></g><g class="ytick"><text text-anchor="end" x="52" y="4.2" style="font-family: &quot;Source Sans&quot;, sans-serif; font-size: 12px; fill: rgb(128, 132, 149); fill-opacity: 1; font-weight: 400; font-style: normal; font-variant: normal; white-space: pre;" transform="translate(0,255.13)">200</text></g><g class="ytick"><text text-anchor="end" x="52" y="4.2" style="font-family: &quot;Source Sans&quot;, sans-serif; font-size: 12px; fill: rgb(128, 132, 149); fill-opacity: 1; font-weight: 400; font-style: normal; font-variant: normal; white-space: pre;" transform="translate(0,209.21)">250</text></g><g class="ytick"><text text-anchor="end" x="52" y="4.2" style="font-family: &quot;Source Sans&quot;, sans-serif; font-size: 12px; fill: rgb(128, 132, 149); fill-opacity: 1; font-weight: 400; font-style: normal; font-variant: normal; white-space: pre;" transform="translate(0,163.3)">300</text></g><g class="ytick"><text text-anchor="end" x="52" y="4.2" style="font-family: &quot;Source Sans&quot;, sans-serif; font-size: 12px; fill: rgb(128, 132, 149); fill-opacity: 1; font-weight: 400; font-style: normal; font-variant: normal; white-space: pre;" transform="translate(0,117.38)">350</text></g><g class="ytick"><text text-anchor="end" x="52" y="4.2" style="font-family: &quot;Source Sans&quot;, sans-serif; font-size: 12px; fill: rgb(128, 132, 149); fill-opacity: 1; font-weight: 400; font-style: normal; font-variant: normal; white-space: pre;" transform="translate(0,71.46)">400</text></g></g></g></g></svg>
