<?xml version="1.0" encoding="UTF-8"?>
<svg xmlns="http://www.w3.org/2000/svg" viewBox="0 0 930 420" width="930" height="420">
  <rect width="930" height="420" fill="#0a0f0d"/>
  <!-- Real sparkline data extracted from the live app's "Popular stocks" section -->
  <g transform="translate(50,50) scale(3.4,2.6)">
    <polygon points="0,36 0.0,34.0 5.7,20.2 11.4,13.8 17.1,3.8 22.9,2.0 28.6,4.1 34.3,12.7 40.0,4.8 45.7,12.7 51.4,10.8 57.1,8.7 62.9,8.7 68.6,16.6 74.3,19.8 80.0,13.3 85.7,15.4 91.4,15.2 97.1,7.2 102.9,13.2 108.6,28.1 114.3,26.3 120.0,13.4 120,36" fill="rgba(52,211,153,0.14)"></polygon>
    <polyline points="0.0,34.0 5.7,20.2 11.4,13.8 17.1,3.8 22.9,2.0 28.6,4.1 34.3,12.7 40.0,4.8 45.7,12.7 51.4,10.8 57.1,8.7 62.9,8.7 68.6,16.6 74.3,19.8 80.0,13.3 85.7,15.4 91.4,15.2 97.1,7.2 102.9,13.2 108.6,28.1 114.3,26.3 120.0,13.4" fill="none" stroke="#34d399" stroke-width="1.75" stroke-linejoin="round" stroke-linecap="round"></polyline>
  </g>
  <g transform="translate(500,50) scale(3.4,2.6)">
    <polygon points="0,36 0.0,13.6 5.7,10.2 11.4,10.1 17.1,5.2 22.9,2.0 28.6,4.6 34.3,15.0 40.0,14.7 45.7,23.8 51.4,17.2 57.1,19.1 62.9,19.1 68.6,18.7 74.3,27.5 80.0,34.0 85.7,22.6 91.4,19.2 97.1,24.0 102.9,18.9 108.6,24.0 114.3,25.1 120.0,22.5 120,36" fill="rgba(248,113,113,0.14)"></polygon>
    <polyline points="0.0,13.6 5.7,10.2 11.4,10.1 17.1,5.2 22.9,2.0 28.6,4.6 34.3,15.0 40.0,14.7 45.7,23.8 51.4,17.2 57.1,19.1 62.9,19.1 68.6,18.7 74.3,27.5 80.0,34.0 85.7,22.6 91.4,19.2 97.1,24.0 102.9,18.9 108.6,24.0 114.3,25.1 120.0,22.5" fill="none" stroke="#f87171" stroke-width="1.75" stroke-linejoin="round" stroke-linecap="round"></polyline>
  </g>
  <g transform="translate(50,230) scale(3.4,2.6)">
    <polygon points="0,36 0.0,10.0 5.7,9.7 11.4,6.2 17.1,4.6 22.9,2.0 28.6,7.6 34.3,21.7 40.0,19.1 45.7,25.8 51.4,20.8 57.1,23.6 62.9,23.6 68.6,24.5 74.3,31.2 80.0,34.0 85.7,23.7 91.4,22.5 97.1,23.4 102.9,17.9 108.6,18.4 114.3,21.8 120.0,18.6 120,36" fill="rgba(248,113,113,0.14)"></polygon>
    <polyline points="0.0,10.0 5.7,9.7 11.4,6.2 17.1,4.6 22.9,2.0 28.6,7.6 34.3,21.7 40.0,19.1 45.7,25.8 51.4,20.8 57.1,23.6 62.9,23.6 68.6,24.5 74.3,31.2 80.0,34.0 85.7,23.7 91.4,22.5 97.1,23.4 102.9,17.9 108.6,18.4 114.3,21.8 120.0,18.6" fill="none" stroke="#f87171" stroke-width="1.75" stroke-linejoin="round" stroke-linecap="round"></polyline>
  </g>
  <g transform="translate(500,230) scale(3.4,2.6)">
    <polygon points="0,36 0.0,34.0 5.7,27.1 11.4,30.9 17.1,29.0 22.9,28.2 28.6,26.6 34.3,25.4 40.0,23.7 45.7,27.8 51.4,17.5 57.1,13.5 62.9,13.5 68.6,13.4 74.3,17.1 80.0,15.7 85.7,9.8 91.4,6.5 97.1,2.0 102.9,5.6 108.6,15.5 114.3,15.5 120.0,9.5 120,36" fill="rgba(52,211,153,0.14)"></polygon>
    <polyline points="0.0,34.0 5.7,27.1 11.4,30.9 17.1,29.0 22.9,28.2 28.6,26.6 34.3,25.4 40.0,23.7 45.7,27.8 51.4,17.5 57.1,13.5 62.9,13.5 68.6,13.4 74.3,17.1 80.0,15.7 85.7,9.8 91.4,6.5 97.1,2.0 102.9,5.6 108.6,15.5 114.3,15.5 120.0,9.5" fill="none" stroke="#34d399" stroke-width="1.75" stroke-linejoin="round" stroke-linecap="round"></polyline>
  </g>
  <text x="50" y="35" font-family="system-ui, sans-serif" font-size="20" font-weight="700" fill="#e8fbf3">Research any Indian stock</text>
  <text x="50" y="395" font-family="system-ui, sans-serif" font-size="13" fill="#6b8c7f">Live price · fundamentals · news · AI research brief</text>
</svg>
